<svg xmlns="http://www.w3.org/2000/svg" viewBox="0 0 276 174"><path d="M180.44 165.6c-9.36-5.2-16.48-12.2-21.36-21-4.88-8.8-7.32-18.4-7.32-28.8 0-13.76 5.52-28.48 16.56-44.16L214.16 7.8c.16-.16.6-.72 1.32-1.68a7.69 7.69 0 0 1 2.76-2.28c1.12-.56 2.4-.84 3.84-.84h11.76c1.44 0 2.6.52 3.48 1.56.88 1.04 1.32 2.28 1.32 3.72 0 .8-.4 1.84-1.2 3.12L202.4 60.36c4.16-.96 8.8-1.44 13.92-1.44 11.68 0 21.96 2.6 30.84 7.8 8.88 5.2 15.76 12.08 20.64 20.64 4.88 8.56 7.32 17.96 7.32 28.2 0 10.24-2.44 19.8-7.32 28.68-4.88 8.88-11.96 15.96-21.24 21.24-9.28 5.28-20.24 7.92-32.88 7.92-12.8 0-23.88-2.6-33.24-7.8zm52.44-16.44c5.92-2.88 10.64-7.16 14.16-12.84 3.52-5.68 5.28-12.52 5.28-20.52 0-7.84-1.8-14.6-5.4-20.28-3.6-5.68-8.36-10-14.28-12.96-5.92-2.96-12.32-4.44-19.2-4.44-6.88 0-13.28 1.48-19.2 4.44-5.92 2.96-10.64 7.28-14.16 12.96-3.52 5.68-5.28 12.44-5.28 20.28 0 8 1.76 14.84 5.28 20.52 3.52 5.68 8.24 9.96 14.16 12.84 5.92 2.88 12.32 4.32 19.2 4.32 7.04 0 13.52-1.44 19.44-4.32zM30.56 167.28c-9.52-4.08-16.92-9.96-22.2-17.64C3.08 141.96.44 133 .44 122.76c0-9.44 2.36-17.72 7.08-24.84 4.72-7.12 11.08-12.6 19.08-16.44-6.4-3.68-11.36-8.52-14.88-14.52-3.52-6-5.28-13.08-5.28-21.24 0-13.92 5.2-24.92 15.6-33C32.44 4.64 46.12.6 63.08.6s30.6 4 40.92 12 15.48 19.04 15.48 33.12c0 8-1.76 15-5.28 21-3.52 6-8.4 10.92-14.64 14.76 8 3.84 14.36 9.32 19.08 16.44 4.72 7.12 7.08 15.48 7.08 25.08 0 10.24-2.64 19.16-7.92 26.76-5.28 7.6-12.68 13.44-22.2 17.52s-20.36 6.12-32.52 6.12c-12.16 0-23-2.04-32.52-6.12zM87.8 65.4c6.72-4.8 10.08-11.2 10.08-19.2 0-8.16-3.32-14.68-9.96-19.56-6.64-4.88-14.92-7.32-24.84-7.32-10.08 0-18.4 2.44-24.96 7.32-6.56 4.88-9.84 11.4-9.84 19.56 0 8.16 3.28 14.68 9.84 19.56 6.56 4.88 14.88 7.32 24.96 7.32 9.76-.32 18-2.88 24.72-7.68zm3.72 80.64c7.6-5.76 11.4-13.44 11.4-23.04s-3.8-17.28-11.4-23.04c-7.6-5.76-17.08-8.64-28.44-8.64-11.52 0-21.08 2.88-28.68 8.64C26.8 105.72 23 113.4 23 123s3.8 17.28 11.4 23.04c7.6 5.76 17.16 8.64 28.68 8.64 11.36 0 20.84-2.88 28.44-8.64z"/></svg>